<?xml version="1.0" encoding="utf-8"?>
<!-- Generator: Adobe Illustrator 13.0.0, SVG Export Plug-In . SVG Version: 6.00 Build 14948)  -->
<!DOCTYPE svg PUBLIC "-//W3C//DTD SVG 1.1//EN" "http://www.w3.org/Graphics/SVG/1.1/DTD/svg11.dtd">
<svg version="1.1" id="Layer_1" xmlns="http://www.w3.org/2000/svg" xmlns:xlink="http://www.w3.org/1999/xlink" x="0px" y="0px"
	 width="100px" height="100px" viewBox="0 0 100 100" enable-background="new 0 0 100 100" xml:space="preserve">
<g id="Layer_7">
	<path fill="#5C666F" d="M66.944,97.738c-0.568,0-1.104-0.307-1.385-0.81l-11.3-20.07c-0.292-0.52-0.269-1.167,0.065-1.666
		l12.044-18.059c0.39-0.588,1.116-0.846,1.786-0.642c0.671,0.202,1.133,0.82,1.133,1.521v4.605c2.727,0.275,5.168,0.383,7.374,0.34
		L63.852,45.528c-0.258-0.348-0.36-0.78-0.288-1.205c0.072-0.426,0.312-0.803,0.665-1.043l17.408-12.037
		c0.72-0.503,1.716-0.324,2.212,0.401L96.64,50.131c1.464,2.122,1.385,5.642,0.463,7.829c-0.013,0.029-0.025,0.061-0.036,0.084
		c-0.013,0.024-0.049,0.089-0.108,0.191c-5.454,9.928-15.146,26.855-19.386,29.786c-3.272,2.261-6.437,1.864-8.487,1.15
		l-0.558,7.098c-0.054,0.696-0.563,1.275-1.241,1.428C67.172,97.727,67.06,97.738,66.944,97.738z M57.512,76.146l8.252,14.67
		l0.33-4.209c0.048-0.569,0.396-1.073,0.917-1.318c0.521-0.233,1.126-0.186,1.595,0.15c0.139,0.095,3.572,2.438,7.151-0.03
		c2.229-1.546,7.654-9.712,14.59-21.88c-4.437,1.996-11.581,3.452-22.861,2.098c-0.799-0.095-1.403-0.778-1.403-1.582v-0.767
		L57.512,76.146z M67.382,44.958l13.051,17.773c10.309-1.056,13.365-5.438,13.727-6.018c0.013-0.02,0.025-0.042,0.035-0.061
		c0.6-1.481,0.522-3.711-0.173-4.716L82.14,34.756L67.382,44.958z M47.823,91.372H25.536c-3.021,0-6.977-4.658-7.84-5.987
		c-0.132-0.192-0.384-0.588-0.624-1.224c-0.731-1.444-1.516-2.985-2.332-4.585C8.38,67.114,3.879,57.984,3.879,53.998
		c0-3.818,1.636-6.384,2.997-7.853L2.579,43.28c-0.582-0.39-0.839-1.115-0.642-1.786c0.203-0.672,0.82-1.133,1.522-1.133h22.077
		c0.503,0,0.971,0.234,1.271,0.636L38.85,57.056c0.365,0.478,0.42,1.126,0.15,1.666c-0.271,0.539-0.822,0.881-1.427,0.881h-7.289
		c-1.937,2.272-3.531,4.37-4.844,6.294h22.388c0.881,0,1.595,0.714,1.595,1.595v22.279C49.417,90.659,48.704,91.372,47.823,91.372z
		 M20.404,83.705c1.175,1.817,4.214,4.479,5.138,4.479h20.692v-19.1H23.432c-4.772,8.236-3.836,12.654-3.321,14.027
		C20.208,83.315,20.303,83.515,20.404,83.705z M8.716,43.55l1.654,1.102c0.449,0.3,0.719,0.809,0.707,1.355
		c-0.012,0.545-0.299,1.043-0.762,1.325c-0.125,0.077-3.255,2.116-3.255,6.666c0,3.338,5.438,14.171,9.778,22.688
		c0.995-4.567,4.016-11.043,11.508-19.717c0.3-0.347,0.744-0.551,1.205-0.551h4.843l-9.656-12.875H8.716V43.55z M37.669,39.03
		c-0.234,0-0.462-0.054-0.678-0.15l-19.14-9.033c-0.792-0.372-1.133-1.326-0.762-2.116l9.598-20.339
		c1.103-2.35,4.321-4.119,6.677-4.412c0.006,0,0.013,0,0.018,0c0.12-0.012,0.33-0.03,0.647-0.024
		c11.312-0.245,30.373-0.311,34.997,1.87c3.632,1.714,5.123,4.448,5.735,6.331l6.425-2.369c0.605-0.233,1.309-0.053,1.752,0.444
		c0.431,0.498,0.521,1.205,0.208,1.792L73.111,30.044c-0.281,0.516-0.819,0.845-1.407,0.845H50.809
		c-0.708,0.258-1.254,0.234-1.763-0.011c-0.558-0.264-1.019-0.972-1.019-1.583c0-0.881,0.713-1.587,1.594-1.587h0.48
		c0.269-0.157,0.702-0.426,1.342-0.899c-1.217-2.764-2.416-5.162-3.584-7.236l-8.752,18.552c-0.179,0.384-0.503,0.678-0.899,0.821
		C38.034,38.999,37.848,39.03,37.669,39.03z M20.651,27.647l16.263,7.673l8.967-19.021C39.665,6.811,34.684,6.175,33.838,6.139
		c-0.047,0-0.096,0-0.15,0c-1.582,0.229-3.603,1.5-4.124,2.603L20.651,27.647z M54.933,27.708h15.806l7.649-14.501l-4.243,1.565
		c-0.475,0.174-1.009,0.114-1.434-0.167c-0.419-0.282-0.684-0.75-0.708-1.253c-0.006-0.138-0.275-3.729-4.334-5.646
		c-2.487-1.175-12.431-1.774-26.53-1.673c3.872,3.027,8.77,8.985,13.721,20.65C54.997,27.011,55.021,27.372,54.933,27.708z"/>
</g>
</svg>
